<svg xmlns="http://www.w3.org/2000/svg" viewBox="0 0 256 256">
  <g fill="none">
    <path fill="#8247E5" d="M128 0c70.692 0 128 57.308 128 128s-57.308 128-128 128S0 198.692 0 128 57.308 0 128 0z"/>
    <path fill="#fff" d="M85.057 108.086c-5.117-2.96-11.402-2.96-16.48 0L47.49 118.514c-5.12 2.96-8.24 8.445-8.24 14.48v29.865c0 6.036 3.12 11.52 8.24 14.48l21.086 12.28c5.117 2.96 11.402 2.96 16.48 0l21.086-12.28c5.12-2.96 8.24-8.444 8.24-14.48v-12.28l-14.48 8.445v12.28c0 1.48-.812 2.844-2.12 3.6l-14.48 8.446a4.12 4.12 0 0 1-4.24 0l-14.48-8.446a4.12 4.12 0 0 1-2.12-3.6v-16.88a4.12 4.12 0 0 1 2.12-3.6l14.48-8.446a4.12 4.12 0 0 1 4.24 0l8.24 4.24 14.48-8.446-21.086-12.28zm117.6-6.68c-5.117-2.96-11.402-2.96-16.48 0l-21.086 12.28c-5.12 2.96-8.24 8.445-8.24 14.48v12.28l14.48-8.446v-12.28c0-1.48.812-2.843 2.12-3.6l14.48-8.446a4.12 4.12 0 0 1 4.24 0l14.48 8.446a4.12 4.12 0 0 1 2.12 3.6v16.88a4.12 4.12 0 0 1-2.12 3.6l-14.48 8.446a4.12 4.12 0 0 1-4.24 0l-8.24-4.24-14.48 8.446 21.086 12.28c5.117 2.96 11.402 2.96 16.48 0l21.086-12.28c5.12-2.96 8.24-8.445 8.24-14.48v-29.866c0-6.036-3.12-11.52-8.24-14.48l-21.086-12.28z"/>
  </g>
</svg>
