<svg xmlns="http://www.w3.org/2000/svg" viewBox="0 0 48 48">
  <g fill="none">
    <circle cx="24" cy="24" r="24" fill="#8EFFF7"/>
    <path d="M13.5 25.733c.131-.147.31-.233.5-.233h19.653c.426 0 .639.524.333.833l-5.572 5.57c-.13.13-.31.197-.5.197H8.261c-.427 0-.64-.525-.333-.834l5.572-5.57zm-5.24 9.534c-.426 0-.639-.524-.333-.833l5.572-5.57c.131-.13.31-.197.5-.197H34.2c.426 0 .639.524.333.834l-5.572 5.57c-.13.13-.31.196-.5.196H8.26zm5.24-19.07c-.131.147-.31.233-.5.233H8.261c-.426 0-.639-.524-.333-.833l5.572-5.57c.13-.13.31-.196.5-.196H34.2c.427 0 .64.524.334.833l-5.572 5.57c-.131.13-.31.196-.5.196H13.5z" fill="#2BE0B5"/>
  </g>
</svg>
