<svg xmlns="http://www.w3.org/2000/svg" viewBox="0 0 256 256">
  <path fill="#2775CA" d="M128 0c70.7 0 128 57.3 128 128S198.7 256 128 256 0 198.7 0 128 57.3 0 128 0z"/>
  <path fill="#fff" d="M103.7 190c-14.3 0-25-7.8-28.2-20.6-.6-2.3-.2-3.8 2.5-4.7 2.6-.9 5.2-1.7 7.9-2.5 2.2-.7 3.6.1 4.3 2.2 1.4 4.6 3.8 8.7 8.6 11.1 8 4.2 17.6 3.2 24.5-2.6 6.8-5.8 9.1-14 7.1-22.7-1.8-8.1-7.6-12.9-16.1-15.3-4.3-1.3-8.7-2.3-13-3.7-7.3-2.3-14-5.2-19.3-10.4-11.5-10.9-10.5-27.6 2.2-37.5 7.8-6.1 16.7-8.2 26.2-7.3 12.2 1.2 21.5 6.6 27.2 17.7 1.2 2.3.6 3.9-1.7 4.8l-7.9 2.6c-2.3.7-4.2 0-5.4-2.2-1.7-3.5-4.2-6.3-7.7-8.4-6.7-3.9-15.1-4.4-22.2-1.3-7.1 3.1-10.8 9-10.2 16.5.6 6.7 4.2 11.1 10.1 13.4 4.3 1.6 8.8 2.6 13.2 3.9 7.8 2.4 15.2 5.6 21.3 10.7 12.8 10.3 13 28.5.4 39.1-12.6 10.7-28.7 11.2-42.4 3.4-5.8-3.3-10-8.2-12.3-14.8-.5-1.4-.8-2.8-1.2-4.2z"/>
</svg>
